<svg width="17" height="16" viewBox="0 0 17 16" fill="none" xmlns="http://www.w3.org/2000/svg">
<path d="M4.9797 0.0559503C4.0753 0.0961104 3.45768 0.231951 2.91775 0.431632C2.35896 0.636592 1.88533 0.911633 1.41409 1.35675C0.942843 1.80188 0.65265 2.24796 0.436408 2.77468C0.227136 3.28396 0.0853546 3.86572 0.0454042 4.71741C0.00545384 5.56909 -0.00338625 5.84285 0.00103379 8.01534C0.00545384 10.1878 0.0156539 10.4601 0.0595144 11.3136C0.102695 12.1646 0.246516 12.7458 0.458678 13.2541C0.676791 13.78 0.968684 14.2256 1.4418 14.6693C1.91491 15.113 2.38854 15.3854 2.94954 15.5893C3.49015 15.7859 4.10845 15.92 5.0132 15.9573C5.91794 15.9946 6.20916 16.0032 8.51676 15.999C10.8244 15.9949 11.1149 15.9853 12.0215 15.9448C12.9281 15.9043 13.5424 15.768 14.0826 15.5693C14.6414 15.3635 15.1152 15.0893 15.5863 14.6438C16.0574 14.1984 16.3474 13.752 16.5635 13.225C16.7729 12.7162 16.9152 12.1342 16.9545 11.2833C16.9941 10.4294 17.0034 10.1568 16.999 7.98462C16.9946 5.81245 16.9842 5.54013 16.9412 4.68701C16.8982 3.83388 16.7542 3.25452 16.5422 2.74588C16.3237 2.21996 16.0322 1.77468 15.5593 1.33067C15.0863 0.886673 14.6117 0.613872 14.0518 0.410992C13.5109 0.214031 12.8929 0.0797904 11.9882 0.0429902C11.0834 0.00619011 10.7922 -0.00324992 8.48378 0.000910092C6.17533 0.00507011 5.88632 0.0143501 4.9797 0.0559503ZM5.07899 14.5181C4.25023 14.4842 3.80023 14.3546 3.50035 14.2461C3.10322 14.1021 2.82034 13.928 2.52148 13.6494C2.22262 13.3709 2.03901 13.1037 1.88397 12.7307C1.76752 12.4485 1.62727 12.0254 1.58851 11.2454C1.54635 10.4024 1.53751 10.1493 1.53258 8.01342C1.52765 5.87757 1.53632 5.62477 1.57559 4.78141C1.61095 4.00204 1.7495 3.57804 1.86459 3.29596C2.01759 2.92172 2.20188 2.65596 2.49853 2.37484C2.79518 2.09372 3.07823 1.9206 3.47485 1.77468C3.77439 1.6646 4.22388 1.53372 5.0523 1.4966C5.94871 1.4566 6.21732 1.4486 8.48633 1.44396C10.7553 1.43931 11.0246 1.44731 11.9214 1.48444C12.7495 1.51836 13.2001 1.64748 13.4995 1.75644C13.8968 1.90044 14.1795 2.0734 14.4782 2.35308C14.7769 2.63276 14.961 2.8982 15.1161 3.27228C15.2332 3.5534 15.3722 3.97628 15.4113 4.75645C15.454 5.60013 15.4637 5.85309 15.4678 7.98846C15.4719 10.1238 15.4639 10.3774 15.4246 11.2205C15.3884 12.0005 15.251 12.4242 15.1356 12.7067C14.9826 13.0803 14.7982 13.3467 14.5013 13.6277C14.2045 13.9086 13.9218 14.0818 13.525 14.2277C13.2258 14.3376 12.7758 14.4688 11.9481 14.5059C11.0517 14.5456 10.7831 14.5539 8.51319 14.5586C6.24333 14.5632 5.97557 14.5546 5.07916 14.5181M12.0084 3.72428C12.0088 3.91417 12.0689 4.09969 12.1813 4.25739C12.2937 4.4151 12.4532 4.53789 12.6397 4.61025C12.8263 4.68261 13.0314 4.70128 13.2292 4.6639C13.427 4.62652 13.6086 4.53477 13.751 4.40026C13.8934 4.26575 13.9902 4.09451 14.0292 3.9082C14.0682 3.7219 14.0476 3.5289 13.9701 3.35361C13.8925 3.17831 13.7614 3.02861 13.5935 2.92342C13.4255 2.81824 13.2281 2.7623 13.0264 2.76268C12.7559 2.76319 12.4968 2.86478 12.3059 3.0451C12.115 3.22543 12.008 3.46973 12.0084 3.72428ZM4.13565 8.00798C4.14041 10.2768 6.09815 12.1118 8.50826 12.1075C10.9184 12.1032 12.8695 10.2608 12.8649 7.99198C12.8603 5.72317 10.9021 3.88764 8.4916 3.89212C6.08115 3.8966 4.13106 5.73949 4.13565 8.00798ZM5.66668 8.0051C5.66557 7.47767 5.83067 6.96178 6.14108 6.52266C6.4515 6.08354 6.8933 5.74091 7.41061 5.53811C7.92793 5.33531 8.49752 5.28144 9.04736 5.38331C9.59721 5.48518 10.1026 5.73822 10.4997 6.11043C10.8967 6.48264 11.1676 6.9573 11.278 7.47439C11.3884 7.99148 11.3334 8.52777 11.12 9.01545C10.9065 9.50313 10.5443 9.92029 10.0789 10.2142C9.61359 10.5081 9.06611 10.6655 8.50571 10.6665C8.13361 10.6673 7.765 10.599 7.42093 10.4657C7.07686 10.3323 6.76407 10.1365 6.50044 9.88931C6.2368 9.64216 6.02747 9.34856 5.88442 9.02526C5.74136 8.70196 5.66737 8.35531 5.66668 8.0051Z" fill="#9AA0A6"/>
</svg>
